<svg xmlns="http://www.w3.org/2000/svg" xmlns:xlink="http://www.w3.org/1999/xlink" viewBox="0 0 100 100"><defs><style>.cls-1{isolation:isolate;}.cls-2{fill:#69463a;}.cls-3{opacity:0.6;mix-blend-mode:multiply;fill:url(#linear-gradient);}.cls-4{fill:#c8c8c8;}.cls-5{fill:#f3c333;}.cls-6{fill:#ffd21e;}.cls-7{fill:#878787;}.cls-8{fill:#ff6432;}.cls-9{fill:#3296a0;}.cls-10{fill:#969696;}.cls-11{fill:#ff8c28;}.cls-12{fill:#5dc1d4;}.cls-13{fill:#fdc00f;}.cls-14{fill:#dcdcdc;}</style><linearGradient id="linear-gradient" x1="17.38" y1="59.34" x2="99.86" y2="59.34" gradientUnits="userSpaceOnUse"><stop offset="0" stop-color="#a0a0a0"/><stop offset="1" stop-color="#dcdcdc"/></linearGradient></defs><title>Ресурс 14</title><g class="cls-1"><g id="Слой_2" data-name="Слой 2"><g id="Layer_1" data-name="Layer 1"><path class="cls-2" d="M100,50c0,1.26,0,2.5-.14,3.74a50,50,0,0,1-45,46Q52.47,100,50,100c-.92,0-1.83,0-2.73-.07H47.2A50,50,0,1,1,100,50Z"/><path class="cls-3" d="M99.86,53.74a50,50,0,0,1-45,46l-7.62.17H47.2L17.38,69.72l5.31-6.63,1.25-9.48L20,49.72l2.75-3L26.33,50l1.61.84L30.36,46l-2.54-8.57-2-2.12,2.63-3.1L35,38.73l-3.92-14,1.7-.9,7.85,7.77L41,23.89l1.31-3.13L51.56,30,54.1,19.26l1.78-.5L70.31,33l3.79-6.47L99.74,52.27Z"/><polygon class="cls-4" points="82.61 69.72 17.38 69.72 18.41 63.2 81.58 63.2 82.61 69.72"/><path class="cls-5" d="M78.49,63.2h-57C21.5,50.11,34.25,39.51,50,39.51S78.49,50.11,78.49,63.2Z"/><path class="cls-6" d="M78.49,63.2c0-13.09-12.76-23.69-28.5-23.69V63.2Z"/><rect class="cls-7" x="24.57" y="46.79" width="1.07" height="10.32" transform="translate(-29.15 32.31) rotate(-44.31)"/><circle class="cls-8" cx="21.5" cy="48.26" r="2.06"/><rect class="cls-7" x="29.66" y="33.6" width="1.03" height="19.96" transform="translate(-11.13 10.35) rotate(-16.49)"/><circle class="cls-9" cx="27.34" cy="34.01" r="2.06"/><path class="cls-10" d="M55.18,18.31a1.19,1.19,0,0,0-1.4.93L47.21,51.77l1,.22,7.87-32.24v0A1.18,1.18,0,0,0,55.18,18.31Zm0,2.79c-.08.27-.21.55-.31.84-.39,1.15-.88,2.28-.88,2.28a.05.05,0,0,1-.07,0,.06.06,0,0,1,0-.05s0-1.23.17-2.43c0-.3,0-.61.07-.89a2.7,2.7,0,0,1,.29-.73,2.55,2.55,0,0,1,.52-.66.06.06,0,0,1,.09,0h0a2.55,2.55,0,0,1,.19.81A2.71,2.71,0,0,1,55.13,21.1Z"/><rect class="cls-7" x="40.73" y="22.34" width="1.03" height="26.44" transform="translate(-0.68 0.81) rotate(-1.12)"/><circle class="cls-6" cx="40.98" cy="22.34" r="2.06"/><rect class="cls-7" x="54.11" y="39.66" width="26.44" height="1.03" transform="translate(1.55 82.85) rotate(-63.8)"/><circle class="cls-11" cx="73.16" cy="28.31" r="2.06" transform="translate(14.47 80.36) rotate(-62.72)"/><rect class="cls-7" x="53.06" y="39.52" width="10.31" height="1.07" transform="translate(-3.08 75.22) rotate(-64.37)"/><circle class="cls-12" cx="60.46" cy="35.4" r="2.06" transform="translate(-8.47 22.83) rotate(-20.02)"/><rect class="cls-7" x="61.84" y="47.7" width="19.96" height="1.03" transform="translate(-4.19 89.51) rotate(-62.39)"/><circle class="cls-13" cx="76.43" cy="39.37" r="2.06" transform="translate(-4.99 66.97) rotate(-45.98)"/><path class="cls-10" d="M40.93,54.58,33.14,24.42v0a1.18,1.18,0,1,0-2.27.69l9.07,29.8ZM33.31,29.43a.05.05,0,0,1-.05,0s-.54-1.1-1-2.22c-.12-.28-.27-.55-.36-.82a2.72,2.72,0,0,1-.09-.78,2.56,2.56,0,0,1,.14-.82.07.07,0,0,1,.08,0h0a2.54,2.54,0,0,1,.55.63,2.71,2.71,0,0,1,.33.71c.06.28.07.59.12.89.2,1.2.3,2.42.31,2.42A.05.05,0,0,1,33.31,29.43Z"/><polygon class="cls-14" points="81.83 64.78 81.58 63.2 18.41 63.2 18.16 64.78 81.83 64.78"/></g></g></g></svg>