<svg xmlns="http://www.w3.org/2000/svg" xmlns:xlink="http://www.w3.org/1999/xlink" viewBox="0 0 100 100"><defs><style>.cls-1{isolation:isolate;}.cls-2{fill:#c83347;}.cls-3{opacity:0.6;mix-blend-mode:multiply;fill:url(#linear-gradient);}.cls-4{fill:#f37138;}.cls-5{fill:#ff6432;}.cls-6{fill:#dcdcdc;}.cls-7{fill:#ff7332;}.cls-8{fill:#ff9614;}.cls-9{fill:#fff;}</style><linearGradient id="linear-gradient" x1="34.12" y1="35.55" x2="84.64" y2="86.07" gradientUnits="userSpaceOnUse"><stop offset="0" stop-color="#a0a0a0"/><stop offset="1" stop-color="#dcdcdc"/></linearGradient></defs><title>Ресурс 2</title><g class="cls-1"><g id="Слой_2" data-name="Слой 2"><g id="Layer_1" data-name="Layer 1"><path class="cls-2" d="M100,50a48.58,48.58,0,0,1-.37,6.06A50,50,0,1,1,100,50Z"/><path class="cls-3" d="M99.63,56.06a50,50,0,0,1-42.26,43.4l-4.8.32L32.93,80.33,54.67,15l4.48,4.66h1L73.46,33.42l3.24-.75,1.64,1.13L99.57,55.09Z"/><path class="cls-4" d="M83.74,57.85l-1.47-.11c-4.13-.29-8.4-.58-11.28-4.23a12.29,12.29,0,0,1-2.09-4,40.43,40.43,0,0,1-11.54,4.72A26.86,26.86,0,0,1,43.73,54l.28-.94a25.89,25.89,0,0,0,13.13.21,39.51,39.51,0,0,0,11.49-4.74,16.52,16.52,0,0,1-.3-5.39A16.77,16.77,0,0,1,70.62,37c1.09-2,2.83-4.58,5.36-4.47a2.87,2.87,0,0,1,2.36,1.23c.93,1.35.82,3.5.3,5-1.37,4-4.76,7.49-8.88,10.16a11.36,11.36,0,0,0,2,3.91c2.61,3.31,6.48,3.58,10.58,3.86l1.49.11Zm-7.89-24.3c-1.95,0-3.42,2.26-4.37,4a15.92,15.92,0,0,0-2.17,5.76,15.73,15.73,0,0,0,.2,4.72c3.81-2.53,6.92-5.75,8.19-9.48a5.22,5.22,0,0,0-.18-4.15,1.88,1.88,0,0,0-1.59-.81Z"/><rect class="cls-5" x="32.93" y="19.66" width="27.27" height="60.67"/><rect class="cls-6" x="38.46" y="15" width="16.21" height="4.67"/><rect class="cls-7" x="46.57" y="19.66" width="13.64" height="60.67"/><polygon class="cls-8" points="38.33 19.66 32.93 21.1 32.93 20.09 34.54 19.66 38.33 19.66"/><polygon class="cls-8" points="53.76 19.66 32.93 25.24 32.93 24.22 49.97 19.66 53.76 19.66"/><polygon class="cls-8" points="60.2 21.04 60.2 22.06 32.93 29.37 32.93 28.35 60.2 21.04"/><polygon class="cls-8" points="60.2 25.18 60.2 26.2 32.93 33.5 32.93 32.48 60.2 25.18"/><polygon class="cls-8" points="60.2 29.3 60.2 30.32 32.93 37.63 32.93 36.6 60.2 29.3"/><polygon class="cls-8" points="60.2 33.43 60.2 34.45 32.93 41.76 32.93 40.74 60.2 33.43"/><polygon class="cls-8" points="60.2 37.57 60.2 38.59 32.93 45.9 32.93 44.88 60.2 37.57"/><polygon class="cls-8" points="60.2 41.7 60.2 42.73 32.93 50.03 32.93 49.01 60.2 41.7"/><polygon class="cls-8" points="60.2 45.83 60.2 46.85 32.93 54.16 32.93 53.14 60.2 45.83"/><polygon class="cls-8" points="60.2 49.95 60.2 50.98 32.93 58.29 32.93 57.26 60.2 49.95"/><polygon class="cls-8" points="60.2 54.09 60.2 55.11 32.93 62.42 32.93 61.4 60.2 54.09"/><polygon class="cls-8" points="60.2 58.23 60.2 59.25 32.93 66.56 32.93 65.53 60.2 58.23"/><polygon class="cls-8" points="60.2 62.36 60.2 63.38 32.93 70.69 32.93 69.67 60.2 62.36"/><polygon class="cls-8" points="60.2 66.49 60.2 67.51 32.93 74.82 32.93 73.8 60.2 66.49"/><polygon class="cls-8" points="60.2 70.61 60.2 71.64 32.93 78.94 32.93 77.92 60.2 70.61"/><polygon class="cls-8" points="60.2 74.75 60.2 75.77 43.17 80.33 39.38 80.33 60.2 74.75"/><polygon class="cls-8" points="60.2 78.89 60.2 79.9 58.59 80.33 54.81 80.33 60.2 78.89"/><rect class="cls-9" x="46.57" y="15" width="8.1" height="4.67"/><rect class="cls-6" x="38.46" y="80.33" width="16.21" height="4.67"/><rect class="cls-9" x="46.57" y="80.33" width="8.1" height="4.67"/></g></g></g></svg>