<svg xmlns="http://www.w3.org/2000/svg" xmlns:xlink="http://www.w3.org/1999/xlink" viewBox="0 0 100 100"><defs><style>.cls-1{isolation:isolate;}.cls-2{fill:#69463a;}.cls-3{opacity:0.6;mix-blend-mode:multiply;fill:url(#linear-gradient);}.cls-4{fill:#3296a0;}.cls-5{fill:#5dc1d4;}.cls-6{fill:#c8c8c8;}.cls-7{fill:#fdc00f;}.cls-8{fill:#969696;}.cls-9{fill:#dcdcdc;}.cls-10{fill:#ffd21e;}.cls-11{fill:#69d2dc;}</style><linearGradient id="linear-gradient" x1="20.95" y1="60.25" x2="99.59" y2="60.25" gradientUnits="userSpaceOnUse"><stop offset="0" stop-color="#a0a0a0"/><stop offset="1" stop-color="#dcdcdc"/></linearGradient></defs><title>Ресурс 8</title><g class="cls-1"><g id="Слой_2" data-name="Слой 2"><g id="Layer_1" data-name="Layer 1"><path class="cls-2" d="M100,50a50.81,50.81,0,0,1-.41,6.44A50,50,0,0,1,50,100c-1.33,0-2.65-.05-4-.16A50,50,0,1,1,100,50Z"/><path class="cls-3" d="M99.59,56.44A50,50,0,0,1,50,100c-1.33,0-2.65-.05-4-.16L20.95,75.5,30.14,64l-.2-1.6L21.65,54,34,20.5l9.87,9.75,28,1.25,2.06,2,2.95.34Z"/><path class="cls-4" d="M77.46,44.38A1.58,1.58,0,0,1,75.88,46H72.13V33.51h3.75a1.58,1.58,0,0,1,1.58,1.58Z"/><path class="cls-5" d="M76.87,48.63a4,4,0,0,1-4-4V34.21a4,4,0,0,0-4-4H24.9a4,4,0,0,0-4,4V52a3.16,3.16,0,0,0,3.16,3.16H34.78a6.52,6.52,0,0,1,6.52-6.52H53.45a3.16,3.16,0,0,1,3.16,3.16v13H77.36V48.63Z"/><rect class="cls-4" x="33.96" y="33.51" width="35.7" height="11.16"/><path class="cls-6" d="M79,75.5H20.95V67.2A3.16,3.16,0,0,1,24.11,64H75.88A3.16,3.16,0,0,1,79,67.2Z"/><circle class="cls-7" cx="47.03" cy="38.95" r="3.46"/><circle class="cls-7" cx="61.39" cy="38.95" r="3.46"/><rect class="cls-7" x="30.14" y="21.66" width="4.64" height="8.6"/><rect class="cls-7" x="61.39" y="52.78" width="11.53" height="2.37"/><rect class="cls-7" x="61.39" y="59.4" width="11.53" height="2.37"/><rect class="cls-4" x="25.49" y="55.15" width="7.61" height="2.57"/><polygon class="cls-6" points="30.93 57.72 30.14 64.04 29.35 57.72 30.93 57.72"/><rect class="cls-8" x="30.96" y="20.5" width="3" height="1.15"/><path class="cls-9" d="M21,66.81H79A3.15,3.15,0,0,0,75.88,64H24.11A3.15,3.15,0,0,0,21,66.81Z"/><path class="cls-10" d="M44.13,40.83a3.41,3.41,0,0,0,1,1l4.77-4.78a3.47,3.47,0,0,0-.46-.57A3.5,3.5,0,0,0,48.9,36Z"/><path class="cls-10" d="M58.71,36.75a3.46,3.46,0,0,0-.4.61A3.38,3.38,0,0,0,58,38l6,3.1a3.38,3.38,0,0,0,.4-.61,3.52,3.52,0,0,0,.26-.68Z"/><rect class="cls-11" x="27.32" y="30.25" width="3.95" height="21.51"/><rect class="cls-10" x="32.46" y="21.66" width="2.32" height="8.6"/></g></g></g></svg>