<svg xmlns="http://www.w3.org/2000/svg" xmlns:xlink="http://www.w3.org/1999/xlink" viewBox="0 0 100 100"><defs><style>.cls-1{isolation:isolate;}.cls-2{fill:#69d2dc;}.cls-3{opacity:0.6;mix-blend-mode:multiply;fill:url(#linear-gradient);}.cls-4{fill:#dcdcdc;}.cls-5{fill:#ffde17;}</style><linearGradient id="linear-gradient" x1="16.11" y1="60.45" x2="97.74" y2="60.45" gradientUnits="userSpaceOnUse"><stop offset="0" stop-color="#a0a0a0"/><stop offset="1" stop-color="#dcdcdc"/></linearGradient></defs><title>Ресурс 13</title><g class="cls-1"><g id="Слой_2" data-name="Слой 2"><g id="Layer_1" data-name="Layer 1"><path class="cls-2" d="M100,50A50,50,0,0,1,55.78,99.67,50,50,0,1,1,100,50Z"/><path class="cls-3" d="M97.74,64.09l-.57,2.51A50,50,0,0,1,55.78,99.67l-9.54.16L16.11,70l1.5-5.91,12.63-8.73L49.11,42.21l-.28-4-7.55-7.7L44,24l5-3,7.26,1.51Z"/><path class="cls-4" d="M51.17,43.49H48.83V36.4l.91-.21c.27-.06,6.65-1.64,6.65-7.82,0-3.73-3.4-6-6.55-6a5.64,5.64,0,0,0-4.22,1.8,9.29,9.29,0,0,0-2,6.37H41.28c0-3.35.9-6.1,2.61-8A8,8,0,0,1,49.83,20c4.28,0,8.9,3.2,8.9,8.38,0,5.83-4.52,8.82-7.56,9.84Z"/><path class="cls-5" d="M83.89,70H16.12V63.62L50,40.73,83.89,63.62ZM20,66.09H80v-.4L50,45.44,20,65.69Z"/></g></g></g></svg>