<svg xmlns="http://www.w3.org/2000/svg" xmlns:xlink="http://www.w3.org/1999/xlink" viewBox="0 0 100 100"><defs><style>.cls-1{isolation:isolate;}.cls-2{fill:#ffde17;}.cls-3{opacity:0.5;mix-blend-mode:multiply;fill:url(#linear-gradient);}.cls-4{fill:#878787;}.cls-5{fill:#5dc1d4;}.cls-6{fill:#3296a0;}</style><linearGradient id="linear-gradient" x1="40.18" y1="58.28" x2="99.82" y2="58.28" gradientUnits="userSpaceOnUse"><stop offset="0" stop-color="#a0a0a0"/><stop offset="1" stop-color="#dcdcdc"/></linearGradient></defs><title>Ресурс 3</title><g class="cls-1"><g id="Слой_2" data-name="Слой 2"><g id="Layer_1" data-name="Layer 1"><path class="cls-2" d="M100,50c0,1.45-.06,2.88-.19,4.29a1.23,1.23,0,0,1,0,.19,48.93,48.93,0,0,1-.71,5A50,50,0,1,1,100,50Z"/><path class="cls-3" d="M99.82,54.3l0,.18-.71,5A50,50,0,0,1,60.23,98.95L43.73,82.3C40.5,73,40.18,53.83,40.18,43.71c0-20.38,15-26.1,15-26.1L67.1,29.79l1.71-7,31,31.49Z"/><path class="cls-4" d="M68.81,22.8s0,.66-.16,1.88-.32,3-.66,5.28-.81,5-1.45,8.13-1.38,6.65-2.25,10.47-1.89,8-3.1,12.3a111.21,111.21,0,0,1-4.55,13.46c-.49,1.14-1,2.27-1.65,3.39a15.33,15.33,0,0,1-2.27,3.21,5.37,5.37,0,0,1-1.76,1.26,3.12,3.12,0,0,1-1.22.24l-.48,0-.56-.07a4.78,4.78,0,0,1-2.06-.84,4.43,4.43,0,0,1-1.42-1.76,5.19,5.19,0,0,1,.11-4.36A4.48,4.48,0,0,1,49,72.85a5.88,5.88,0,0,1,.59,0l.49,0,.6.1.56.16a4.39,4.39,0,0,1,1.89,1.33,6.37,6.37,0,0,1,1.34,4.14,7.65,7.65,0,0,1-1.2,4.12,5.27,5.27,0,0,1-1.61,1.59,4.54,4.54,0,0,1-2.21.69,6.46,6.46,0,0,1-4.17-1.15,8.82,8.82,0,0,1-2.6-3.31A28.58,28.58,0,0,1,40.5,73c-.42-2.52-.67-5-.84-7.49-.33-4.92-.38-9.69-.34-14.18s.2-8.76.49-12.7a86.59,86.59,0,0,1,1.36-10.71,25.87,25.87,0,0,1,2.77-8,9.19,9.19,0,0,1,2.14-2.53,6.58,6.58,0,0,1,2.24-1.18,7.25,7.25,0,0,1,1.54-.27l.53,0v1.51l-.43,0a5.72,5.72,0,0,0-1.21.22,6.18,6.18,0,0,0-3.49,3,24.43,24.43,0,0,0-2.54,7.53,85.27,85.27,0,0,0-1.29,10.51c-.27,3.89-.4,8.12-.43,12.59s0,9.2.28,14.06c.16,2.43.4,4.89.79,7.34a27.2,27.2,0,0,0,2,7.12,7.33,7.33,0,0,0,2.11,2.75,4.91,4.91,0,0,0,3.19.88A3.31,3.31,0,0,0,52,81.88a6.19,6.19,0,0,0,1-3.3,4.94,4.94,0,0,0-1-3.18,2.94,2.94,0,0,0-1.27-.9l-.38-.11L50,74.31l-.48,0c-.08,0-.26,0-.38,0A3,3,0,0,0,46.61,76a3.78,3.78,0,0,0-.1,3.14,3.11,3.11,0,0,0,2.42,1.8l.39.05.48,0a1.8,1.8,0,0,0,.64-.14,4,4,0,0,0,1.3-.94,22.17,22.17,0,0,0,3.67-6.17,109.94,109.94,0,0,0,4.54-13.27c1.22-4.31,2.25-8.42,3.14-12.23s1.65-7.32,2.3-10.43S66.59,32,67.1,29.79C68.11,25.33,68.81,22.8,68.81,22.8Z"/><path class="cls-5" d="M59.55,35a28.47,28.47,0,0,0,.19-3.23c0-9.27-4.42-16.79-9.87-16.79S40,22.51,40,31.78A28.49,28.49,0,0,0,40.18,35Z"/><path class="cls-6" d="M40.18,35c6.22,0,8.71-1.82,8.71-4.51,0-3.55-3.31-4.17-3.31-6.8a4.29,4.29,0,0,1,8.58,0c0,2.64-3.31,3.25-3.31,6.8,0,2.7,2.48,4.51,8.71,4.51Z"/></g></g></g></svg>