<svg xmlns="http://www.w3.org/2000/svg" xmlns:xlink="http://www.w3.org/1999/xlink" viewBox="0 0 100 100"><defs><style>.cls-1{isolation:isolate;}.cls-2{fill:#ffde17;}.cls-3{opacity:0.5;mix-blend-mode:multiply;fill:url(#linear-gradient);}.cls-4{fill:#ff6432;}.cls-5{fill:#ff8232;}.cls-6{fill:#ff8c32;}.cls-7{fill:#ff6e32;}</style><linearGradient id="linear-gradient" x1="28.45" y1="64.22" x2="98.34" y2="64.22" gradientUnits="userSpaceOnUse"><stop offset="0" stop-color="#a0a0a0"/><stop offset="1" stop-color="#dcdcdc"/></linearGradient></defs><title>Ресурс 10</title><g class="cls-1"><g id="Слой_2" data-name="Слой 2"><g id="Layer_1" data-name="Layer 1"><path class="cls-2" d="M100,50A50,50,0,1,1,50,0,50.05,50.05,0,0,1,100,50Z"/><path class="cls-3" d="M98.34,62.15,98,63.94A50.07,50.07,0,0,1,62.9,98.32h-.73L31,67.37,28.45,45.06,40.31,30.12l27.86,1.64Z"/><path class="cls-4" d="M50,24.25A25.75,25.75,0,1,0,75.74,50,25.75,25.75,0,0,0,50,24.25Zm6,29a2.62,2.62,0,1,1-2.62,2.62A2.62,2.62,0,0,1,56,53.2Zm-2.62-9A2.62,2.62,0,1,1,56,46.81,2.62,2.62,0,0,1,53.37,44.19Zm-9.61,2.62a2.62,2.62,0,1,1,2.62-2.62A2.63,2.63,0,0,1,43.76,46.81Zm2.62,9a2.62,2.62,0,1,1-2.62-2.62A2.63,2.63,0,0,1,46.38,55.83Z"/><path class="cls-5" d="M50,27.9A22.1,22.1,0,1,0,72.1,50,22.1,22.1,0,0,0,50,27.9Zm3.38,27.93A2.62,2.62,0,1,1,56,58.45,2.62,2.62,0,0,1,53.37,55.83Zm2.62-9a2.62,2.62,0,1,1,2.62-2.62A2.63,2.63,0,0,1,56,46.81Zm-14.86,9a2.62,2.62,0,1,1,2.62,2.62A2.62,2.62,0,0,1,41.14,55.83Zm2.62-9a2.62,2.62,0,1,1,2.62-2.62A2.63,2.63,0,0,1,43.76,46.81Z"/><path class="cls-4" d="M50,34.85A15.15,15.15,0,1,0,65.14,50,15.15,15.15,0,0,0,50,34.85ZM43.76,58.45a2.62,2.62,0,1,1,2.62-2.62A2.63,2.63,0,0,1,43.76,58.45Zm0-11.64a2.62,2.62,0,1,1,2.62-2.62A2.63,2.63,0,0,1,43.76,46.81ZM56,58.45a2.62,2.62,0,1,1,2.62-2.62A2.63,2.63,0,0,1,56,58.45Zm0-11.64a2.62,2.62,0,1,1,2.62-2.62A2.63,2.63,0,0,1,56,46.81Z"/><path class="cls-6" d="M72.1,50A22.11,22.11,0,0,0,50,27.9V72.11A22.1,22.1,0,0,0,72.1,50ZM56,41.57a2.62,2.62,0,1,1-2.62,2.62A2.62,2.62,0,0,1,56,41.57ZM56,53.2a2.62,2.62,0,1,1-2.62,2.62A2.62,2.62,0,0,1,56,53.2Z"/><path class="cls-7" d="M65.14,50A15.15,15.15,0,0,0,50,34.85v30.3A15.15,15.15,0,0,0,65.14,50ZM56,41.57a2.62,2.62,0,1,1-2.62,2.62A2.62,2.62,0,0,1,56,41.57ZM56,53.2a2.62,2.62,0,1,1-2.62,2.62A2.62,2.62,0,0,1,56,53.2Z"/></g></g></g></svg>