<svg xmlns="http://www.w3.org/2000/svg" xmlns:xlink="http://www.w3.org/1999/xlink" viewBox="0 0 100 100"><defs><style>.cls-1{isolation:isolate;}.cls-2{fill:#69d2dc;}.cls-3{opacity:0.5;mix-blend-mode:multiply;fill:url(#linear-gradient);}.cls-4{fill:#ffdc28;}.cls-5{fill:#f3c333;}.cls-6{fill:#ffd21e;}.cls-7{fill:#b69031;}</style><linearGradient id="linear-gradient" x1="29.1" y1="63.46" x2="97.68" y2="63.46" gradientUnits="userSpaceOnUse"><stop offset="0" stop-color="#a0a0a0"/><stop offset="1" stop-color="#dcdcdc"/></linearGradient></defs><title>Ресурс 15</title><g class="cls-1"><g id="Слой_2" data-name="Слой 2"><g id="Layer_1" data-name="Layer 1"><path class="cls-2" d="M100,50A50,50,0,0,1,53.21,99.89c-1.06.08-2.13.11-3.21.11a50,50,0,1,1,50-50Z"/><path class="cls-3" d="M97.68,65.07A50,50,0,0,1,53.21,99.89L29.1,75.43l4.18-1.74,1.25-5.58L59.94,27,97.61,64.61Z"/><path class="cls-4" d="M30,72.83H70a1.4,1.4,0,0,1,1.4,1.4v.12a1.4,1.4,0,0,1-1.4,1.4H30a1.41,1.41,0,0,1-1.41-1.41v-.12a1.4,1.4,0,0,1,1.4-1.4Z"/><path class="cls-5" d="M68.68,72.82H31.31L39.73,27.3v-.07a19.19,19.19,0,0,1,20.51,0v.07Z"/><path class="cls-6" d="M68.68,72.82,60.27,27.3v-.07a19.93,19.93,0,0,0-10.25-3V72.82Z"/><path class="cls-6" d="M60.27,27.3H39.73v-.07a19.19,19.19,0,0,1,20.51,0Z"/><rect class="cls-4" x="35.33" y="50.63" width="29.62" height="0.94"/><circle class="cls-7" cx="50" cy="29.81" r="0.82"/><circle class="cls-7" cx="46.42" cy="29.81" r="0.82"/><circle class="cls-7" cx="42.84" cy="29.81" r="0.82"/><circle class="cls-7" cx="50" cy="33.56" r="0.82"/><circle class="cls-7" cx="45.97" cy="33.56" r="0.82"/><circle class="cls-7" cx="41.93" cy="33.56" r="0.82"/><circle class="cls-7" cx="48.09" cy="37.3" r="0.84"/><circle class="cls-7" cx="44.41" cy="37.3" r="0.84"/><circle class="cls-7" cx="40.73" cy="37.3" r="0.84"/><circle class="cls-7" cx="48.09" cy="41.05" r="0.84"/><circle class="cls-7" cx="43.94" cy="41.05" r="0.84"/><circle class="cls-7" cx="39.79" cy="41.05" r="0.84"/><circle class="cls-7" cx="50" cy="44.79" r="0.87"/><circle class="cls-7" cx="46.22" cy="44.79" r="0.87"/><circle class="cls-7" cx="42.44" cy="44.79" r="0.87"/><circle class="cls-7" cx="57.16" cy="29.81" r="0.82"/><circle class="cls-7" cx="53.58" cy="29.81" r="0.82"/><circle class="cls-7" cx="58.06" cy="33.56" r="0.82"/><circle class="cls-7" cx="54.03" cy="33.56" r="0.82"/><circle class="cls-7" cx="59.27" cy="37.3" r="0.84"/><circle class="cls-7" cx="55.59" cy="37.3" r="0.84"/><circle class="cls-7" cx="51.91" cy="37.3" r="0.84"/><circle class="cls-7" cx="60.2" cy="41.05" r="0.84"/><circle class="cls-7" cx="56.06" cy="41.05" r="0.84"/><circle class="cls-7" cx="51.91" cy="41.05" r="0.84"/><circle class="cls-7" cx="38.65" cy="44.79" r="0.87"/><circle class="cls-7" cx="61.42" cy="44.79" r="0.87"/><circle class="cls-7" cx="57.64" cy="44.79" r="0.87"/><circle class="cls-7" cx="53.85" cy="44.79" r="0.87"/><circle class="cls-7" cx="50" cy="48.54" r="0.87"/><circle class="cls-7" cx="45.98" cy="48.54" r="0.87"/><circle class="cls-7" cx="41.97" cy="48.54" r="0.87"/><circle class="cls-7" cx="38.19" cy="48.54" r="0.87"/><circle class="cls-7" cx="61.89" cy="48.54" r="0.87"/><circle class="cls-7" cx="58.1" cy="48.54" r="0.87"/><circle class="cls-7" cx="54.09" cy="48.54" r="0.87"/></g></g></g></svg>