<svg xmlns="http://www.w3.org/2000/svg" xmlns:xlink="http://www.w3.org/1999/xlink" viewBox="0 0 100 100"><defs><style>.cls-1{isolation:isolate;}.cls-2{fill:#ffde17;}.cls-3{opacity:0.5;mix-blend-mode:multiply;fill:url(#linear-gradient);}.cls-4{fill:#5dc1d4;}.cls-5{fill:#3296a0;}.cls-6{fill:#f7c83e;}</style><linearGradient id="linear-gradient" x1="32.6" y1="55.08" x2="99.85" y2="55.08" gradientUnits="userSpaceOnUse"><stop offset="0" stop-color="#a0a0a0"/><stop offset="1" stop-color="#dcdcdc"/></linearGradient></defs><title>Ресурс 9</title><g class="cls-1"><g id="Слой_2" data-name="Слой 2"><g id="Layer_1" data-name="Layer 1"><path class="cls-2" d="M100,50a49.1,49.1,0,0,1-.31,5.57A50,50,0,0,1,50,100c-.33,0-.65,0-1,0a50,50,0,1,1,51-50Z"/><path class="cls-3" d="M99.85,51.89l0,3.68A50,50,0,0,1,50.14,100c-.33,0-.65,0-1,0l-15-15L32.6,76.39l2.75-6.75,3-4,5-.75,4.25,3.63,2.51-5.76L42.1,32l-.44-21.85L54.48,23.26l4.15-13.09Z"/><path class="cls-4" d="M67.82,72.84C61.33,56.16,52.53,67.4,52.53,67.4l-11-57.22s-5,14.95-2.66,26.53c2.46,12.1,6.69,19.69,9.73,26.64,2,4.58,4.11,15.14,7.3,20.73C60.6,92.34,72.16,84,67.82,72.84Zm-5.3,10.5c-2.63.82-5.92-2.24-7.34-6.83s-.44-9,2.19-9.79,5.92,2.24,7.34,6.83S65.15,82.52,62.52,83.34Z"/><path class="cls-5" d="M58.49,10.17l-11,57.22s-8.8-11.24-15.29,5.44C27.85,84,39.41,92.34,44.12,84.07c3.19-5.6,5.3-16.15,7.3-20.73,3-7,7.27-14.54,9.73-26.64C63.5,25.12,58.49,10.17,58.49,10.17ZM44.84,76.51c-1.43,4.59-4.71,7.65-7.34,6.83s-3.61-5.2-2.19-9.79S40,65.9,42.65,66.72,46.26,71.92,44.84,76.51Z"/><circle class="cls-6" cx="49.97" cy="62.3" r="0.93"/></g></g></g></svg>