<svg xmlns="http://www.w3.org/2000/svg" xmlns:xlink="http://www.w3.org/1999/xlink" viewBox="0 0 100 100"><defs><style>.cls-1{isolation:isolate;}.cls-2{fill:#c83347;}.cls-3{opacity:0.6;mix-blend-mode:multiply;fill:url(#linear-gradient);}.cls-4{fill:#5dc1d4;}.cls-5{fill:#dcdcdc;}.cls-6{fill:#ff6432;}.cls-7{fill:#69d2dc;}</style><linearGradient id="linear-gradient" x1="20.77" y1="59.98" x2="99.93" y2="59.98" gradientUnits="userSpaceOnUse"><stop offset="0" stop-color="#a0a0a0"/><stop offset="1" stop-color="#dcdcdc"/></linearGradient></defs><title>Ресурс 12</title><g class="cls-1"><g id="Слой_2" data-name="Слой 2"><g id="Layer_1" data-name="Layer 1"><path class="cls-2" d="M100,50c0,.84,0,1.67-.07,2.49A50,50,0,0,1,50,100c-1.43,0-2.85-.06-4.25-.19A50,50,0,1,1,99.18,40.93v0A49.85,49.85,0,0,1,100,50Z"/><path class="cls-3" d="M99.93,52.49A50,50,0,0,1,50,100c-1.43,0-2.85-.06-4.25-.19L40.27,99,20.92,79.44l-.15-.31L45,54.3,59.77,39.51V36.8l2.37-5.09L78.14,20l21,21v0Z"/><path class="cls-4" d="M23.42,79.44a1.77,1.77,0,0,1-2.5,0l-1-1a1.77,1.77,0,0,1,0-2.5L42.61,53.16a1.77,1.77,0,0,1,2.5,0l1,1a1.77,1.77,0,0,1,0,2.5Z"/><rect class="cls-5" x="42.64" y="45.57" width="20.43" height="1.77" transform="translate(-17.37 50.98) rotate(-45)"/><path class="cls-5" d="M78.14,20c-2,1.93-15.61,11.29-16,16.58a1.85,1.85,0,0,0,.64,1.53c.72.52,2,.61,4.08-.75a20.23,20.23,0,0,0,2.77-2.14c-.89,2-3.75,6.27-7.51,5.9a5,5,0,0,1-2.69-1.15l-.14-.14c-5-5.44,7-13,13.59-16.9C76,21,78.14,20,78.14,20Z"/><circle class="cls-6" cx="69.61" cy="35.12" r="1.68" transform="translate(-5.48 56.11) rotate(-42.38)"/><path class="cls-7" d="M20.92,79.44a1.77,1.77,0,0,0,2.5,0L46.16,56.7a1.77,1.77,0,0,0,0-2.5l-.52-.52L20.4,78.92Z"/></g></g></g></svg>