<svg xmlns="http://www.w3.org/2000/svg" xmlns:xlink="http://www.w3.org/1999/xlink" viewBox="0 0 100 100"><defs><style>.cls-1{isolation:isolate;}.cls-2{fill:#69d2dc;}.cls-3{opacity:0.5;mix-blend-mode:multiply;fill:url(#linear-gradient);}.cls-4{fill:#3296a0;}.cls-5{fill:#dcdcdc;}.cls-6{fill:#c8c8c8;}.cls-7{fill:#3ca0aa;}</style><linearGradient id="linear-gradient" x1="35.45" y1="54.9" x2="99.29" y2="54.9" gradientUnits="userSpaceOnUse"><stop offset="0" stop-color="#a0a0a0"/><stop offset="1" stop-color="#dcdcdc"/></linearGradient></defs><title>Ресурс 6</title><g class="cls-1"><g id="Слой_2" data-name="Слой 2"><g id="Layer_1" data-name="Layer 1"><path class="cls-2" d="M100,50A49.93,49.93,0,0,1,56.8,99.54,50.78,50.78,0,0,1,50,100a50,50,0,1,1,50-50Z"/><path class="cls-3" d="M99.29,55.8l0,2.94A50.05,50.05,0,0,1,56.8,99.54l-11,.26-10.34-10,2.15-1.64L50,78.54,49.06,66.8l-9.75-9.63,7.11-31.5L53.22,10l6.48,6.65,2.42,1.5Z"/><path class="cls-4" d="M50,57.17H60.68s.08-4.27.08-10.41-3.34-11-3.34-15.7c0-5.83,5.44-8.08,5.44-8.08V19.79c0-3.89-9.64-3.26-9.64-9.79H46.77c0,6.53-9.64,5.91-9.64,9.79V23s5.44,2.25,5.44,8.08c0,4.74-3.34,9.56-3.34,15.7s.08,10.41.08,10.41Z"/><polygon class="cls-5" points="36.93 90 35.78 88.53 49.06 78.09 49.06 57.17 50.93 57.17 50.93 78.99 36.93 90"/><rect class="cls-5" x="55.88" y="75.23" width="1.87" height="17.35" transform="translate(-44.26 76.7) rotate(-51.82)"/><rect class="cls-5" x="49.06" y="78.54" width="1.87" height="10.72"/><rect class="cls-6" x="35.45" y="87.72" width="4.84" height="2.03"/><rect class="cls-6" x="59.7" y="87.72" width="4.84" height="2.03"/><rect class="cls-6" x="47.58" y="87.72" width="4.84" height="2.03"/><path class="cls-7" d="M60.68,57.17s.08-4.27.08-10.41-3.34-11-3.34-15.7c0-5.83,5.44-8.08,5.44-8.08V19.79c0-3.89-9.64-3.26-9.64-9.79H50V57.17Z"/></g></g></g></svg>