<svg xmlns="http://www.w3.org/2000/svg" xmlns:xlink="http://www.w3.org/1999/xlink" viewBox="0 0 100 100"><defs><style>.cls-1{isolation:isolate;}.cls-2{fill:#c83347;}.cls-3{opacity:0.6;mix-blend-mode:multiply;fill:url(#linear-gradient);}.cls-4{fill:#ff6432;}.cls-5{fill:#ff8232;}.cls-6{fill:#fff;}.cls-7{fill:#fdc00f;}.cls-8{fill:#ffd21e;}</style><linearGradient id="linear-gradient" x1="30.09" y1="59.49" x2="99.99" y2="59.49" gradientUnits="userSpaceOnUse"><stop offset="0" stop-color="#a0a0a0"/><stop offset="1" stop-color="#dcdcdc"/></linearGradient></defs><title>Ресурс 17</title><g class="cls-1"><g id="Слой_2" data-name="Слой 2"><g id="Layer_1" data-name="Layer 1"><path class="cls-2" d="M100,50a50,50,0,0,1-50,50,50.85,50.85,0,0,1-5.11-.26l-.35,0A50,50,0,1,1,100,48.78a.09.09,0,0,1,0,.07C100,49.23,100,49.62,100,50Z"/><path class="cls-3" d="M100,48.79v.06L98,64.1A50,50,0,0,1,50,100a50.85,50.85,0,0,1-5.11-.26l-.34,0h0L30.09,85,49.3,26.26,69.52,19,100,48.78Z"/><path class="cls-4" d="M62.43,41.27v.36a30.21,30.21,0,0,0,.78,5.9c1.35,6,4,12.47,4.82,20C69.18,78.9,69.92,85,69.92,85H30.09S30.82,78.9,32,67.57c.78-7.57,3.47-14,4.82-20a29.92,29.92,0,0,0,.78-5.9v-.36c0-9.76-9.11-13.54-9.11-13.54V22.41c0-3.71,5.26-5,9.77-7.4a12.74,12.74,0,0,0,23.54,0c4.51,2.42,9.77,3.69,9.77,7.4v5.33S62.43,31.51,62.43,41.27Z"/><path class="cls-5" d="M50,85H69.92S69.18,78.9,68,67.57c-1-10.23-5.6-18.35-5.6-26.29,0-9.76,9.11-13.54,9.11-13.54V22.4c0-3.71-5.26-5-9.77-7.4A12.64,12.64,0,0,1,50,22.87V85Z"/><path class="cls-6" d="M50,27c-7.94,0-14.36-4.74-14.62-10.8l1,0C36.61,21.66,42.6,26,50,26s13.39-4.33,13.63-9.85l1,0C64.37,22.23,57.94,27,50,27Z"/><path class="cls-7" d="M63.2,47.53H36.79c.12-.52.22-1,.31-1.57a26,26,0,0,0,.37-2.76c.05-.52.08-1,.09-1.57H62.42q0,.79.09,1.57c.08.92.2,1.83.37,2.76C63,46.48,63.09,47,63.2,47.53Z"/><path class="cls-8" d="M62.89,46H37.11a26,26,0,0,0,.37-2.76h25C62.6,44.12,62.72,45,62.89,46Z"/></g></g></g></svg>