<svg xmlns="http://www.w3.org/2000/svg" xmlns:xlink="http://www.w3.org/1999/xlink" viewBox="0 0 100 100"><defs><style>.cls-1{isolation:isolate;}.cls-2{fill:#c83347;}.cls-3{opacity:0.6;mix-blend-mode:multiply;fill:url(#linear-gradient);}.cls-4{fill:#969696;}.cls-5{fill:#dcdcdc;}.cls-6{fill:#f37138;}.cls-7{fill:#fff;}</style><linearGradient id="linear-gradient" x1="26.49" y1="54.99" x2="99.08" y2="54.99" gradientUnits="userSpaceOnUse"><stop offset="0" stop-color="#a0a0a0"/><stop offset="1" stop-color="#dcdcdc"/></linearGradient></defs><title>Ресурс 7</title><g class="cls-1"><g id="Слой_2" data-name="Слой 2"><g id="Layer_1" data-name="Layer 1"><path class="cls-2" d="M100,50a49.94,49.94,0,0,1-49.52,50H50a50,50,0,1,1,50-50Z"/><path class="cls-3" d="M99.08,59.59A50,50,0,0,1,50.48,100L30.31,79.57l-1.51-2.1-1.37-5.66L26.49,69l.66-4.67,18.91,19,1.06.42,1-10.8L49.22,10Z"/><path class="cls-4" d="M51.5,75.13c-.09-3.62-.19-7.84-.3-12.36s-.25-9.35-.38-14.17L50,22.06c-.07-1.81-.13-3.47-.22-4.94s-.18-2.75-.25-3.81c-.17-2.11-.31-3.32-.31-3.32s-.14,1.21-.31,3.32l-.25,3.81c-.08,1.47-.15,3.13-.22,4.94L47.62,48.6c-.13,4.82-.26,9.65-.38,14.17s-.22,8.74-.3,12.36c-.16,7.24-.26,12.06-.26,12.06s0,.09,0,.13a2.55,2.55,0,1,0,5.08-.13S51.65,82.36,51.5,75.13ZM49.22,88c-.53,0-1.2.07-1.2-4s.54-10.79,1.2-10.79,1.2,6.7,1.2,10.79S49.75,88,49.22,88Z"/><rect class="cls-4" x="46.8" y="81.56" width="1.28" height="4.36"/><path class="cls-5" d="M51.5,75.13c-.09-3.62-.19-7.84-.3-12.36s-.25-9.35-.38-14.17L50,22.06c-.07-1.81-.13-3.47-.22-4.94s-.18-2.75-.25-3.81c-.17-2.11-.31-3.32-.31-3.32s-.14,1.21-.31,3.32l-.25,3.81c-.08,1.47-.15,3.13-.22,4.94L47.62,48.6c-.13,4.82-.26,9.65-.38,14.17s-.22,8.74-.3,12.36c-.16,7.24-.26,12.06-.26,12.06s0,.09,0,.13a2.55,2.55,0,1,0,5.08-.13S51.65,82.36,51.5,75.13ZM49.22,88c-.53,0-1.2.07-1.2-4s.54-10.79,1.2-10.79,1.2,6.7,1.2,10.79S49.75,88,49.22,88Z"/><path class="cls-6" d="M75.69,85.5a16,16,0,0,1-12.4-5.31,14,14,0,0,1-1.92-2.94,26.28,26.28,0,0,1-22.49,6.64c-10.44-2-12.58-9.23-12.57-19.54h.85c0,9.89,2,16.85,11.88,18.7a25.39,25.39,0,0,0,22-6.63,17.29,17.29,0,0,1-.94-9.31c.64-4.1,2.22-5.09,3.1-5.31A2.61,2.61,0,0,1,65.86,63c1.36,1.8,1.77,5.31-.4,9.1A22.35,22.35,0,0,1,62,76.62a13.13,13.13,0,0,0,1.93,3,15.16,15.16,0,0,0,11.76,5Zm-12-22.91a1.3,1.3,0,0,0-.32,0c-1.14.29-2.06,2-2.47,4.62a16.61,16.61,0,0,0,.75,8.52,21.46,21.46,0,0,0,3.07-4.11c2-3.46,1.66-6.6.46-8.17A2,2,0,0,0,63.69,62.6Z"/><path class="cls-7" d="M50.42,84c0,4.09-.67,4-1.2,4v2h.06a2.67,2.67,0,0,0,2.48-2.82s-.1-4.82-.26-12.06c-.09-3.62-.19-7.84-.3-12.36s-.25-9.35-.38-14.17L50,22.06c-.07-1.81-.13-3.47-.22-4.94s-.18-2.75-.25-3.81c-.17-2.11-.31-3.32-.31-3.32V73.24C49.88,73.24,50.42,79.94,50.42,84Z"/></g></g></g></svg>