<svg xmlns="http://www.w3.org/2000/svg" xmlns:xlink="http://www.w3.org/1999/xlink" viewBox="0 0 100 100"><defs><style>.cls-1{isolation:isolate;}.cls-2{fill:#69463a;}.cls-3{opacity:0.6;mix-blend-mode:multiply;fill:url(#linear-gradient);}.cls-4{fill:#dcdcdc;}.cls-5{fill:#5dc1d4;}.cls-6{fill:#fdc00f;}.cls-7{fill:#3296a0;}.cls-8{fill:#ffd21e;}</style><linearGradient id="linear-gradient" x1="14.67" y1="63.49" x2="99.2" y2="63.49" gradientUnits="userSpaceOnUse"><stop offset="0" stop-color="#a0a0a0"/><stop offset="1" stop-color="#dcdcdc"/></linearGradient></defs><title>Ресурс 5</title><g class="cls-1"><g id="Слой_2" data-name="Слой 2"><g id="Layer_1" data-name="Layer 1"><path class="cls-2" d="M100,50a49.93,49.93,0,0,1-48.68,50h0L50,100l-1.29,0h-.3A50,50,0,1,1,100,50Z"/><path class="cls-3" d="M99.2,59a50,50,0,0,1-47.88,41H48.41L14.67,66.19l2.85-1,.42-1.72L29.24,50l10.12-9.38L67.49,27,99.11,58.62Z"/><path class="cls-4" d="M78.72,65.85c0,.63-.95,1.15-2.1,1.15H16.67c-1.16,0-2.1-.52-2.1-1.15v-.1c0-.63.95-1.15,2.1-1.15H76.62c1.16,0,2.1.52,2.1,1.15Z"/><path class="cls-5" d="M67.5,27C43.23,27,18.67,56.16,16.67,64.6H76.22c0-3.26,9.21-10,9.21-10Zm-.1,21.87h-29a26.59,26.59,0,0,1,9.06-9.69c3.46-2.25,10.62-7.06,18.15-2.75C69.9,38.87,67.4,48.87,67.4,48.87Z"/><circle class="cls-6" cx="75.74" cy="54.15" r="3.45"/><rect class="cls-7" x="50.49" y="44.65" width="11.54" height="4.22"/><path class="cls-7" d="M30,60.77a.77.77,0,0,1-.59-1.26l5.3-6.28a3.07,3.07,0,0,1,2.35-1.09h29a1.53,1.53,0,0,1,1.54,1.53v5.56a1.53,1.53,0,0,1-1.54,1.53Z"/><rect class="cls-6" x="24.94" y="42.41" width="11.13" height="3.05" transform="translate(-21.87 33.07) rotate(-43.51)"/><path class="cls-8" d="M74.9,57.48a3.08,3.08,0,0,0,1.7,0V50.81a3.13,3.13,0,0,0-1.7,0Z"/></g></g></g></svg>