<svg xmlns="http://www.w3.org/2000/svg" xmlns:xlink="http://www.w3.org/1999/xlink" viewBox="0 0 100 100"><defs><style>.cls-1{isolation:isolate;}.cls-2{fill:#ffde17;}.cls-3{opacity:0.6;mix-blend-mode:multiply;fill:url(#linear-gradient);}.cls-4{fill:#3296a0;}.cls-5{fill:#3ca0aa;}.cls-6{fill:#5dc1d4;}.cls-7{fill:#fdc00f;}.cls-8{fill:#fff;}</style><linearGradient id="linear-gradient" x1="24.34" y1="59.23" x2="100" y2="59.23" gradientUnits="userSpaceOnUse"><stop offset="0" stop-color="#a0a0a0"/><stop offset="1" stop-color="#dcdcdc"/></linearGradient></defs><title>Ресурс 16</title><g class="cls-1"><g id="Слой_2" data-name="Слой 2"><g id="Layer_1" data-name="Layer 1"><path class="cls-2" d="M100,50A50,50,0,0,1,57.4,99.45h0A48.7,48.7,0,0,1,50,100,50,50,0,1,1,99.79,45.43C99.93,46.93,100,48.46,100,50Z"/><path class="cls-3" d="M100,50A50,50,0,0,1,57.4,99.45h0L44.59,87.26l.14-27-.41-14.82-20-20,3-5.44c3,1.4,10,6.94,10,6.94L52.77,42.05a49.78,49.78,0,0,0,4.69-6.13c1.77-2.89,9.9-9.64,9.9-9.64l6.54-3.53L73.46,19,99.79,45.43C99.93,46.93,100,48.46,100,50Z"/><path class="cls-4" d="M49,57.48l0-1.2c0-.74-.1-1.73-.19-2.59-.06-.62-.16-1.23-.26-1.78-.05-.29-.1-.56-.13-.81L48.12,50l.87-.2.27,1.17c0,.28.09.54.14.82.1.56.21,1.2.27,1.84.1.88.19,1.9.19,2.67l0,1.18Z"/><polygon class="cls-4" points="52.49 55.37 52.56 57.46 46.34 57.46 46.28 55.72 52.49 55.37"/><path class="cls-4" d="M52,51.2s.09.52.17,1a10.38,10.38,0,0,1,.13,1L46.13,54a7,7,0,0,0-.11-.86l-.14-.86Z"/><path class="cls-4" d="M48.55,50.31,48.11,50A30.75,30.75,0,0,0,47,46.35a32.15,32.15,0,0,0-1.48-3.46l-.1-.2.09-.21.79.4-.4-.2.4-.2A32.58,32.58,0,0,1,47.87,46,31.25,31.25,0,0,1,49,49.75Z"/><path class="cls-4" d="M51,47.12l.3,1c.13.51.24,1,.24,1l-6.05,1.44s-.09-.42-.2-.84l-.25-.83Z"/><path class="cls-4" d="M49.6,43.18l.41,1,.36,1-5.84,2.13-.3-.82-.34-.8Z"/><path class="cls-4" d="M45.54,42.86s-.2-.43-.53-1l-.28-.5c-.3-.54-.64-1.15-1-1.74s-.75-1.16-1.1-1.65l-.37-.53-.71-.94.71-.54,1.1,1.49c.36.5.76,1.08,1.12,1.69s.75,1.22,1.06,1.78l.28.5c.35.66.56,1.1.56,1.1Z"/><path class="cls-4" d="M47.75,39.45l.51.91.47.93-5.57,2.76-.39-.78-.43-.77Z"/><path class="cls-4" d="M45.54,36l.59.85.56.87L41.43,41,41,40.25l-.51-.73Z"/><path class="cls-4" d="M41.5,36.46s-1.15-1.51-2.44-2.89-2.67-2.68-2.68-2.7l.61-.65s1.43,1.33,2.73,2.74c2.75,2.94,2.6,3.29,2.55,3.41Z"/><path class="cls-4" d="M43,32.7l.66.79c.33.39.63.81.63.81L39.4,38.1s-.26-.36-.55-.7l-.57-.69Z"/><path class="cls-4" d="M40.26,29.68l.71.73c.36.36.7.74.7.74L37.1,35.37s-.3-.33-.61-.65l-.62-.64Z"/><path class="cls-4" d="M36.68,31l-.31-.12c-.24-.22-1.52-1.4-2.87-2.47s-3-2.27-3-2.28l.25-.37-.19-.4c.2-.1.39-.18,3.54,2.36C35.44,28.79,36.73,30,37,30.21Z"/><path class="cls-4" d="M37.28,26.92s.39.33.76.67l.75.68-4.23,4.56-.67-.61c-.33-.31-.68-.6-.68-.6Z"/><path class="cls-4" d="M34.13,24.38l.8.61c.4.3.79.63.79.63l-3.89,4.85s-.35-.29-.71-.56l-.72-.55Z"/><path class="cls-4" d="M30.46,26.11S28.88,25,27.27,24c-.77-.46-1.6-.93-2.27-1.29s-1-.53-1.05-.53l.38-.81s.44.21,1.09.55,1.53.84,2.32,1.31c1.64,1,3.22,2.09,3.24,2.11Z"/><path class="cls-4" d="M30.81,22.06l.85.56.83.57-3.56,5.1-.75-.51-.76-.5Z"/><path class="cls-4" d="M27.33,20l.89.5.87.52-3.2,5.33-.78-.46-.78-.44Z"/><path class="cls-5" d="M49.89,57.48l-.89,0,0-1.2c0-.76.1-1.77.19-2.66.06-.64.17-1.28.27-1.84.05-.28.1-.55.13-.79l.28-1.2.86.2-.27,1.17c0,.21-.08.48-.12.77-.1.54-.2,1.16-.26,1.77-.09.87-.19,1.86-.19,2.59Z"/><path class="cls-5" d="M46.9,51.2s.07-.52.19-1l.24-1,6,1.44-.2.84c-.1.42-.16.85-.16.85Z"/><path class="cls-5" d="M46.41,55.37s0-.13,0-.33,0-.46.07-.72c.05-.52.1-1,.1-1l6.18.71-.09.86c0,.22,0,.43-.06.59s0,.27,0,.27Z"/><path class="cls-5" d="M50.35,50.31l-.43-.55A31.92,31.92,0,0,1,51,46a32.73,32.73,0,0,1,1.52-3.55l.4.19.4-.2v.41a31.9,31.9,0,0,0-1.48,3.45A31.34,31.34,0,0,0,50.78,50l-.08.34Z"/><path class="cls-5" d="M49.3,43.18l.41-1,.46-.93,5.57,2.76-.39.78-.35.8Z"/><path class="cls-5" d="M47.86,47.12l.3-1,.36-1,5.84,2.13-.3.82-.25.83Z"/><path class="cls-5" d="M53.36,42.86l-.8-.38s.21-.44.55-1.09l.29-.51c.31-.55.66-1.18,1.07-1.79s.76-1.17,1.12-1.67l.37-.52.74-1,.71.54-1.09,1.47c-.35.49-.74,1-1.09,1.63s-.74,1.21-1,1.75l-.29.51C53.56,42.43,53.36,42.86,53.36,42.86Z"/><path class="cls-5" d="M53.36,36l.6-.84.62-.82,4.92,3.8L59,38.8l-.51.72Z"/><path class="cls-5" d="M51.15,39.45l.51-.9.55-.88L57.46,41l-.47.75-.43.76Z"/><path class="cls-5" d="M57.39,36.46l-.76-.09c-.05-.12-.2-.47,2.55-3.41,1.29-1.41,2.71-2.73,2.73-2.74l.6.65s-1.41,1.31-2.68,2.69S57.4,36.44,57.39,36.46Z"/><polygon class="cls-5" points="58.63 29.68 60.1 28.27 64.33 32.83 63.03 34.08 58.63 29.68"/><path class="cls-5" d="M55.87,32.7s.32-.4.67-.78l.69-.76,4.57,4.21-.6.66c-.3.33-.58.68-.58.68Z"/><path class="cls-5" d="M62.21,31l-.3-.77c.25-.23,1.55-1.43,2.93-2.52,3.15-2.54,3.34-2.45,3.54-2.35l-.19.4.25.37s-1.55,1.08-3,2.28-2.63,2.25-2.87,2.48L62.4,31Z"/><path class="cls-5" d="M64.77,24.38l.82-.6.82-.59L70,28.29l-.74.52-.73.54Z"/><path class="cls-5" d="M61.61,26.92l.77-.66.79-.64,3.89,4.85-.7.57-.69.59Z"/><path class="cls-5" d="M68.44,26.11l-.51-.73s1.6-1.13,3.24-2.11c.78-.47,1.63-.95,2.31-1.31s1.09-.55,1.09-.55l.38.81s-.43.2-1.05.53-1.5.82-2.27,1.29C70,25,68.46,26.1,68.44,26.11Z"/><path class="cls-5" d="M71.56,20l.91-.49c.46-.24.94-.47,1-.49l2.6,5.65-.73.37-.78.42Z"/><path class="cls-5" d="M68.08,22.06l.85-.54L69.8,21,73,26.32l-.77.47-.76.49Z"/><rect class="cls-4" x="47.26" y="61.16" width="0.89" height="6.96"/><rect class="cls-4" x="44.59" y="61.16" width="6.22" height="1.74"/><rect class="cls-4" x="44.59" y="64.64" width="6.22" height="1.74"/><rect class="cls-4" x="50.75" y="61.16" width="0.89" height="6.96"/><rect class="cls-4" x="48.09" y="66.38" width="6.22" height="1.74"/><rect class="cls-4" x="48.09" y="62.9" width="6.22" height="1.74"/><rect class="cls-4" x="47.26" y="68.12" width="0.89" height="6.96"/><rect class="cls-4" x="44.59" y="68.12" width="6.22" height="1.74"/><rect class="cls-4" x="44.59" y="71.6" width="6.22" height="1.74"/><rect class="cls-5" x="50.75" y="68.12" width="0.89" height="6.96"/><rect class="cls-5" x="48.09" y="73.34" width="6.22" height="1.74"/><rect class="cls-5" x="48.09" y="69.86" width="6.22" height="1.74"/><rect class="cls-4" x="47.26" y="75.08" width="0.89" height="6.96"/><rect class="cls-4" x="44.59" y="75.08" width="6.22" height="1.74"/><rect class="cls-4" x="44.59" y="78.56" width="6.22" height="1.74"/><rect class="cls-5" x="50.75" y="75.08" width="0.89" height="6.96"/><rect class="cls-5" x="48.09" y="80.3" width="6.22" height="1.74"/><rect class="cls-5" x="48.09" y="76.82" width="6.22" height="1.74"/><rect class="cls-4" x="47.26" y="82.04" width="0.89" height="6.96"/><rect class="cls-4" x="44.59" y="82.04" width="6.22" height="1.74"/><rect class="cls-4" x="44.59" y="85.52" width="6.22" height="1.74"/><rect class="cls-5" x="50.75" y="82.04" width="0.89" height="6.96"/><rect class="cls-5" x="48.09" y="87.26" width="6.22" height="1.74"/><rect class="cls-5" x="48.09" y="83.78" width="6.22" height="1.74"/><polygon class="cls-6" points="54.17 60.27 44.73 60.27 43.84 45.77 55.05 45.77 54.17 60.27"/><path class="cls-7" d="M53.45,66.34c0,5.88-1.79,7.1-4,7.1s-4-1.22-4-7.1,1.79-16,4-16S53.45,60.45,53.45,66.34Z"/><rect class="cls-4" x="47.71" y="48.43" width="3.48" height="8.88"/><circle class="cls-8" cx="49.45" cy="69.38" r="2"/></g></g></g></svg>