<svg xmlns="http://www.w3.org/2000/svg" xmlns:xlink="http://www.w3.org/1999/xlink" viewBox="0 0 100 100"><defs><style>.cls-1{isolation:isolate;}.cls-2{fill:#69463a;}.cls-3{opacity:0.6;mix-blend-mode:multiply;fill:url(#linear-gradient);}.cls-4{fill:#dcb414;}.cls-5{fill:#ffd21e;}.cls-6{fill:#ffe632;}.cls-7{fill:#b69031;}.cls-8{fill:#c8c8c8;}</style><linearGradient id="linear-gradient" x1="22.18" y1="63.94" x2="99.96" y2="63.94" gradientUnits="userSpaceOnUse"><stop offset="0" stop-color="#a0a0a0"/><stop offset="1" stop-color="#dcdcdc"/></linearGradient></defs><title>Ресурс 11</title><g class="cls-1"><g id="Слой_2" data-name="Слой 2"><g id="Layer_1" data-name="Layer 1"><path class="cls-2" d="M100,50c0,.61,0,1.21,0,1.81a49.87,49.87,0,0,1-46.24,48h-.15c-1.18.09-2.37.13-3.57.13a50,50,0,1,1,50-50Z"/><path class="cls-3" d="M100,51.81A50,50,0,0,1,61.39,98.7l-7.67,1.16-.14,0h0L22.18,68,75.65,28Z"/><path class="cls-4" d="M75.65,28.44l0,18.62h-51l.13-16s.14-2.6,2.6-2.6Z"/><path class="cls-4" d="M24.59,32.25a3.94,3.94,0,0,0,4.06,2.6H74.78a2.6,2.6,0,0,1,2.6,2.6V50.08H24.59Z"/><path class="cls-5" d="M23,40.88V68H74.78c1.44,0,2.89-.83,2.89-2.27V38.62a3.68,3.68,0,0,1-3.35,2.27Z"/><path class="cls-6" d="M74.79,41.32H23v-.87H74.79a2.17,2.17,0,0,0,2.16-2.16v-.84a2.17,2.17,0,0,0-2.16-2.17H27.38a3,3,0,0,1-3-3V31a3,3,0,0,1,3-3H75.65v.87H27.38A2.17,2.17,0,0,0,25.21,31v1.22a2.17,2.17,0,0,0,2.17,2.17H74.79a3,3,0,0,1,3,3v.84A3,3,0,0,1,74.79,41.32Z"/><rect class="cls-7" x="29.01" y="54.23" width="0.87" height="13.77"/><rect class="cls-7" x="35.4" y="47.05" width="0.86" height="20.95"/><rect class="cls-7" x="41.79" y="54.23" width="0.87" height="13.77"/><rect class="cls-7" x="48.18" y="47.05" width="0.87" height="20.95"/><rect class="cls-7" x="54.57" y="54.23" width="0.87" height="13.77"/><rect class="cls-7" x="60.96" y="47.05" width="0.87" height="20.95"/><rect class="cls-7" x="67.35" y="54.23" width="0.87" height="13.77"/><rect class="cls-7" x="73.74" y="47.05" width="0.87" height="20.95"/><path class="cls-7" d="M29.29,45.35h.62v7.45H29V46.52a.92.92,0,0,1-.41.27,1.5,1.5,0,0,1-.52.1v-.61a1.48,1.48,0,0,0,.68-.29A1.53,1.53,0,0,0,29.29,45.35Z"/><path class="cls-7" d="M41.3,47.83a3.8,3.8,0,0,1,.36-2.14,1.2,1.2,0,0,1,1.05-.42q1.22,0,1.22,2.06a4.29,4.29,0,0,1-.53,2l-.47.85a5.78,5.78,0,0,0-.74,1.95h1.63v.66H41.35v-.41a6.18,6.18,0,0,1,.85-2.48l.28-.53c.18-.35.29-.55.33-.6a2.53,2.53,0,0,0,.23-.69,4.42,4.42,0,0,0,.09-.87,3.38,3.38,0,0,0-.06-.73.79.79,0,0,0-.16-.37.31.31,0,0,0-.22-.09.39.39,0,0,0-.21.05c-.2.13-.3.54-.3,1.26v1H41.3Z"/><path class="cls-7" d="M55.73,48.87q.77.35.77,1.87a2.87,2.87,0,0,1-.36,1.61,1.29,1.29,0,0,1-1.14.52,1.21,1.21,0,0,1-1.1-.5,3,3,0,0,1-.32-1.59v-.33h.85v.34a3.46,3.46,0,0,0,.11,1.06.46.46,0,0,0,.48.27.49.49,0,0,0,.5-.31,3.29,3.29,0,0,0,.13-1.12,2.61,2.61,0,0,0-.18-1.14.64.64,0,0,0-.62-.33h-.24v-.7h.23a.9.9,0,0,0,.47-.1c.22-.14.33-.53.33-1.2v0a1.88,1.88,0,0,0-.17-1A.53.53,0,0,0,55,46a.44.44,0,0,0-.42.26,2.37,2.37,0,0,0-.13,1v.18h-.86v-.19a2.64,2.64,0,0,1,.33-1.48A1.23,1.23,0,0,1,55,45.27a1.3,1.3,0,0,1,1.12.48,2.48,2.48,0,0,1,.35,1.46Q56.48,48.6,55.73,48.87Z"/><path class="cls-7" d="M67.78,45.35h.9V50.7h.61v.69h-.61V52.8h-.79V51.39H66.13v-.61Zm.11,5.35V46.82l-1,3.87Z"/><rect class="cls-8" x="22.18" y="40.23" width="2.41" height="27.77"/></g></g></g></svg>