<svg xmlns="http://www.w3.org/2000/svg" xmlns:xlink="http://www.w3.org/1999/xlink" viewBox="0 0 100 100"><defs><style>.cls-1{isolation:isolate;}.cls-2{fill:#69d2dc;}.cls-3{opacity:0.5;mix-blend-mode:multiply;fill:url(#linear-gradient);}.cls-4{fill:#fff;}</style><linearGradient id="linear-gradient" x1="37.2" y1="55.47" x2="99.6" y2="55.47" gradientUnits="userSpaceOnUse"><stop offset="0" stop-color="#a0a0a0"/><stop offset="1" stop-color="#dcdcdc"/></linearGradient></defs><title>Ресурс 4</title><g class="cls-1"><g id="Слой_2" data-name="Слой 2"><g id="Layer_1" data-name="Layer 1"><path class="cls-2" d="M100,50a50.86,50.86,0,0,1-.4,6.35v0A50,50,0,0,1,50,100c-.76,0-1.53,0-2.28-.05h0A50,50,0,1,1,100,50Z"/><path class="cls-3" d="M99.6,56.35v0A50,50,0,0,1,59.32,99.13l-11.6.82h0L37.2,89l8.14-25.63-3-16.6L38.2,42.68,52.64,11l7.94,8.29h2.23L99.58,56.13Z"/><path class="cls-4" d="M62.81,19.29c-2.9,0-10.17-1-10.17-8.28H37.75s8.05,18.36-.55,27.87l1,3.8H52.41l-13.2,5.38,4.58,14.54L37.2,89H62.81Z"/></g></g></g></svg>